<svg xmlns="http://www.w3.org/2000/svg" viewBox="0 0 1332.85 143.13"><defs><style>.cls-1{fill:#fff;}</style></defs><title>pheonix</title><g id="Calque_2" data-name="Calque 2"><g id="Calque_1-2" data-name="Calque 1"><path class="cls-1" d="M82.44,64.1c0,17.37-16.52,28.27-34.07,28.27H36.62v47.35H0V3.46H48.37c17.55,0,34.07,11.07,34.07,28.27ZM48.2,36.5c0-3.58-2-5.45-6.3-5.45H36.62V64.78H41.9c4.26,0,6.3-1.88,6.3-5.45Z"/><path class="cls-1" d="M151.08,139.72V89.82H129.45v49.9H92.83V3.46h36.62V58.64h21.63V3.46h36.63V139.72Z"/><path class="cls-1" d="M200,139.72V3.46h72V30.2H236.59V56.94h23.33V82.83H236.59v28.28H272v28.61Z"/><path class="cls-1" d="M371.66,109.4c0,18.57-19.25,33.73-45.14,33.73S281.38,128,281.38,109.4V33.78c0-18.57,19.25-33.73,45.14-33.73s45.14,15.16,45.14,33.73ZM334.19,36c0-3.58-3.41-5.79-7.67-5.79s-7.66,2.21-7.66,5.79v71.2c0,3.58,3.4,5.79,7.66,5.79s7.67-2.21,7.67-5.79Z"/><path class="cls-1" d="M446.27,139.72l-30.67-64v64H382.9V3.46h31.68l29.3,65.23V3.46h32.53V139.72Z"/><path class="cls-1" d="M489.35,139.72V3.46H526V139.72Z"/><path class="cls-1" d="M604.33,68l28.1,71.71H594.62l-12.1-35.94-13.79,35.94H532.79l29.47-68.3-27.43-68h37.65L584.23,39.4,597.51,3.46h36Z"/><path class="cls-1" d="M722.36,139.72l-1.87-17.88H702.94l-2.72,17.88H667.68L691.87,3.46h43.78l24.53,136.26Zm-9.71-90.27L707,92.54h10.39Z"/><path class="cls-1" d="M837.33,139.72l-4.08-7.49C830,137,817.58,143.13,807,143.13c-26.57,0-41.73-16.52-41.73-32v-79c0-14,18.57-32,46.5-32,27.6,0,45.82,18.05,45.82,32V54.73H819.79V36c0-3.58-3.41-5.79-8-5.79s-8.17,2.21-8.17,5.79v70.35c0,3.58,3.23,6.64,9.2,6.64,6.3,0,9.19-3.06,9.19-6.64V92.88H811.78V71.42h46.85v68.3Z"/><path class="cls-1" d="M869.35,139.72V3.46h72.06V30.2H906V56.94h23.33V82.83H906v28.28h35.43v28.61Z"/><path class="cls-1" d="M1015.16,139.72l-30.66-64v64H951.79V3.46h31.69l29.29,65.23V3.46h32.54V139.72Z"/><path class="cls-1" d="M1148.7,111.11c0,14-17.89,32-45.65,32-27.6,0-46.51-18-46.51-32v-79c0-14,18.91-32,46.51-32,27.76,0,45.65,18.05,45.65,32V54.73h-37.31V36c0-3.58-3.75-5.79-8.34-5.79s-8.18,2.21-8.18,5.79v71.2c0,3.58,3.58,5.79,8.18,5.79s8.34-2.21,8.34-5.79V88.45h37.31Z"/><path class="cls-1" d="M1221.93,81v58.76h-36.62V81l-32-77.5h37.65l15,45.48,13.29-45.48h36.11Z"/><path class="cls-1" d="M1269.69,31.1c0-17.45,13.84-31.1,31.55-31.1s31.61,13.59,31.61,31.1-13.9,31-31.61,31S1269.69,48.48,1269.69,31.1Zm55.37,0a23.83,23.83,0,1,0-47.65,0,23.83,23.83,0,1,0,47.65,0ZM1289.2,45.2V15.9h14.68c6.18,0,10.49,3.8,10.49,9.08,0,4.57-2.51,7.92-6.63,8.7l8.18,11.52h-8.37l-6.83-10.56H1296V45.2ZM1296,29.55h6.5c3,0,4.7-1.54,4.7-4.18s-1.61-3.86-4.5-3.86H1296Z"/></g></g></svg>